<mxfile host="app.diagrams.net" agent="Mozilla/5.0 (Windows NT 10.0; Win64; x64) AppleWebKit/537.36 (KHTML, like Gecko) Chrome/125.0.0.0 Safari/537.36" version="26.1.1">
  <diagram name="第 1 页" id="jv6t2xq7y7ePvnGA-T8t">
    <mxGraphModel dx="2074" dy="2301" grid="1" gridSize="10" guides="1" tooltips="1" connect="1" arrows="1" fold="1" page="1" pageScale="1" pageWidth="827" pageHeight="1169" math="0" shadow="0">
      <root>
        <mxCell id="0" />
        <mxCell id="1" parent="0" />
        <mxCell id="hnSrLLZlEB0RMOj97dXH-48" value="1" style="ellipse;whiteSpace=wrap;html=1;aspect=fixed;" parent="1" vertex="1">
          <mxGeometry x="40" y="-1080" width="40" height="40" as="geometry" />
        </mxCell>
        <mxCell id="hnSrLLZlEB0RMOj97dXH-49" value="1" style="rounded=1;whiteSpace=wrap;html=1;container=0;" parent="1" vertex="1">
          <mxGeometry x="160" y="-1080" width="40" height="40" as="geometry" />
        </mxCell>
        <mxCell id="hnSrLLZlEB0RMOj97dXH-50" value="2" style="rounded=1;whiteSpace=wrap;html=1;container=0;" parent="1" vertex="1">
          <mxGeometry x="200" y="-1080" width="40" height="40" as="geometry" />
        </mxCell>
        <mxCell id="hnSrLLZlEB0RMOj97dXH-51" value="1" style="ellipse;whiteSpace=wrap;html=1;aspect=fixed;" parent="1" vertex="1">
          <mxGeometry x="350" y="-1140" width="40" height="40" as="geometry" />
        </mxCell>
        <mxCell id="hnSrLLZlEB0RMOj97dXH-52" value="2" style="ellipse;whiteSpace=wrap;html=1;aspect=fixed;" parent="1" vertex="1">
          <mxGeometry x="320" y="-1080" width="40" height="40" as="geometry" />
        </mxCell>
        <mxCell id="hnSrLLZlEB0RMOj97dXH-53" value="3" style="ellipse;whiteSpace=wrap;html=1;aspect=fixed;" parent="1" vertex="1">
          <mxGeometry x="390" y="-1080" width="40" height="40" as="geometry" />
        </mxCell>
        <mxCell id="hnSrLLZlEB0RMOj97dXH-54" value="" style="endArrow=none;html=1;rounded=0;exitX=0.596;exitY=-0.032;exitDx=0;exitDy=0;exitPerimeter=0;entryX=0;entryY=1;entryDx=0;entryDy=0;" parent="1" source="hnSrLLZlEB0RMOj97dXH-52" target="hnSrLLZlEB0RMOj97dXH-51" edge="1">
          <mxGeometry width="50" height="50" relative="1" as="geometry">
            <mxPoint x="370" y="-990" as="sourcePoint" />
            <mxPoint x="420" y="-1040" as="targetPoint" />
          </mxGeometry>
        </mxCell>
        <mxCell id="hnSrLLZlEB0RMOj97dXH-55" value="" style="endArrow=none;html=1;rounded=0;exitX=0.5;exitY=0;exitDx=0;exitDy=0;" parent="1" source="hnSrLLZlEB0RMOj97dXH-53" target="hnSrLLZlEB0RMOj97dXH-51" edge="1">
          <mxGeometry width="50" height="50" relative="1" as="geometry">
            <mxPoint x="450" y="-1020" as="sourcePoint" />
            <mxPoint x="500" y="-1070" as="targetPoint" />
          </mxGeometry>
        </mxCell>
        <mxCell id="hnSrLLZlEB0RMOj97dXH-56" value="1" style="ellipse;whiteSpace=wrap;html=1;aspect=fixed;" parent="1" vertex="1">
          <mxGeometry x="550" y="-1140" width="40" height="40" as="geometry" />
        </mxCell>
        <mxCell id="hnSrLLZlEB0RMOj97dXH-57" value="2" style="ellipse;whiteSpace=wrap;html=1;aspect=fixed;" parent="1" vertex="1">
          <mxGeometry x="520" y="-1080" width="40" height="40" as="geometry" />
        </mxCell>
        <mxCell id="hnSrLLZlEB0RMOj97dXH-59" value="" style="endArrow=none;html=1;rounded=0;exitX=0.596;exitY=-0.032;exitDx=0;exitDy=0;exitPerimeter=0;entryX=0;entryY=1;entryDx=0;entryDy=0;" parent="1" source="hnSrLLZlEB0RMOj97dXH-57" target="hnSrLLZlEB0RMOj97dXH-56" edge="1">
          <mxGeometry width="50" height="50" relative="1" as="geometry">
            <mxPoint x="570" y="-990" as="sourcePoint" />
            <mxPoint x="620" y="-1040" as="targetPoint" />
          </mxGeometry>
        </mxCell>
        <mxCell id="hnSrLLZlEB0RMOj97dXH-60" value="" style="endArrow=none;html=1;rounded=0;exitX=0.5;exitY=0;exitDx=0;exitDy=0;" parent="1" target="hnSrLLZlEB0RMOj97dXH-56" edge="1">
          <mxGeometry width="50" height="50" relative="1" as="geometry">
            <mxPoint x="610" y="-1080" as="sourcePoint" />
            <mxPoint x="700" y="-1070" as="targetPoint" />
          </mxGeometry>
        </mxCell>
        <mxCell id="hnSrLLZlEB0RMOj97dXH-62" value="3" style="rounded=1;whiteSpace=wrap;html=1;container=0;" parent="1" vertex="1">
          <mxGeometry x="600" y="-1080" width="40" height="40" as="geometry" />
        </mxCell>
        <mxCell id="hnSrLLZlEB0RMOj97dXH-63" value="4" style="rounded=1;whiteSpace=wrap;html=1;container=0;" parent="1" vertex="1">
          <mxGeometry x="640" y="-1080" width="40" height="40" as="geometry" />
        </mxCell>
        <mxCell id="hnSrLLZlEB0RMOj97dXH-64" value="1" style="ellipse;whiteSpace=wrap;html=1;aspect=fixed;" parent="1" vertex="1">
          <mxGeometry x="790" y="-1140" width="40" height="40" as="geometry" />
        </mxCell>
        <mxCell id="hnSrLLZlEB0RMOj97dXH-65" value="2" style="ellipse;whiteSpace=wrap;html=1;aspect=fixed;" parent="1" vertex="1">
          <mxGeometry x="760" y="-1080" width="40" height="40" as="geometry" />
        </mxCell>
        <mxCell id="hnSrLLZlEB0RMOj97dXH-66" value="" style="endArrow=none;html=1;rounded=0;exitX=0.596;exitY=-0.032;exitDx=0;exitDy=0;exitPerimeter=0;entryX=0;entryY=1;entryDx=0;entryDy=0;" parent="1" source="hnSrLLZlEB0RMOj97dXH-65" target="hnSrLLZlEB0RMOj97dXH-64" edge="1">
          <mxGeometry width="50" height="50" relative="1" as="geometry">
            <mxPoint x="810" y="-990" as="sourcePoint" />
            <mxPoint x="860" y="-1040" as="targetPoint" />
          </mxGeometry>
        </mxCell>
        <mxCell id="hnSrLLZlEB0RMOj97dXH-67" value="" style="endArrow=none;html=1;rounded=0;exitX=0.5;exitY=0;exitDx=0;exitDy=0;" parent="1" target="hnSrLLZlEB0RMOj97dXH-64" edge="1">
          <mxGeometry width="50" height="50" relative="1" as="geometry">
            <mxPoint x="850" y="-1080" as="sourcePoint" />
            <mxPoint x="940" y="-1070" as="targetPoint" />
          </mxGeometry>
        </mxCell>
        <mxCell id="hnSrLLZlEB0RMOj97dXH-68" value="3" style="rounded=1;whiteSpace=wrap;html=1;container=0;" parent="1" vertex="1">
          <mxGeometry x="840" y="-1080" width="40" height="40" as="geometry" />
        </mxCell>
        <mxCell id="hnSrLLZlEB0RMOj97dXH-69" value="4" style="rounded=1;whiteSpace=wrap;html=1;container=0;" parent="1" vertex="1">
          <mxGeometry x="880" y="-1080" width="40" height="40" as="geometry" />
        </mxCell>
        <mxCell id="hnSrLLZlEB0RMOj97dXH-70" value="5" style="rounded=1;whiteSpace=wrap;html=1;container=0;" parent="1" vertex="1">
          <mxGeometry x="920" y="-1080" width="40" height="40" as="geometry" />
        </mxCell>
        <mxCell id="hnSrLLZlEB0RMOj97dXH-72" value="2" style="ellipse;whiteSpace=wrap;html=1;aspect=fixed;" parent="1" vertex="1">
          <mxGeometry x="760" y="-900" width="40" height="40" as="geometry" />
        </mxCell>
        <mxCell id="hnSrLLZlEB0RMOj97dXH-73" value="" style="endArrow=none;html=1;rounded=0;exitX=0.596;exitY=-0.032;exitDx=0;exitDy=0;exitPerimeter=0;entryX=0;entryY=1;entryDx=0;entryDy=0;" parent="1" source="hnSrLLZlEB0RMOj97dXH-72" edge="1">
          <mxGeometry width="50" height="50" relative="1" as="geometry">
            <mxPoint x="810" y="-810" as="sourcePoint" />
            <mxPoint x="795.8578643762689" y="-925.857864376269" as="targetPoint" />
          </mxGeometry>
        </mxCell>
        <mxCell id="hnSrLLZlEB0RMOj97dXH-74" value="" style="endArrow=none;html=1;rounded=0;" parent="1" edge="1">
          <mxGeometry width="50" height="50" relative="1" as="geometry">
            <mxPoint x="840" y="-900" as="sourcePoint" />
            <mxPoint x="824.1421356237311" y="-925.857864376269" as="targetPoint" />
          </mxGeometry>
        </mxCell>
        <mxCell id="hnSrLLZlEB0RMOj97dXH-76" value="4" style="rounded=1;whiteSpace=wrap;html=1;container=0;" parent="1" vertex="1">
          <mxGeometry x="830" y="-960" width="40" height="40" as="geometry" />
        </mxCell>
        <mxCell id="hnSrLLZlEB0RMOj97dXH-78" value="1" style="rounded=1;whiteSpace=wrap;html=1;container=0;" parent="1" vertex="1">
          <mxGeometry x="790" y="-960" width="40" height="40" as="geometry" />
        </mxCell>
        <mxCell id="hnSrLLZlEB0RMOj97dXH-80" value="3" style="ellipse;whiteSpace=wrap;html=1;aspect=fixed;" parent="1" vertex="1">
          <mxGeometry x="830" y="-900" width="40" height="40" as="geometry" />
        </mxCell>
        <mxCell id="hnSrLLZlEB0RMOj97dXH-81" value="5" style="ellipse;whiteSpace=wrap;html=1;aspect=fixed;" parent="1" vertex="1">
          <mxGeometry x="890" y="-900" width="40" height="40" as="geometry" />
        </mxCell>
        <mxCell id="hnSrLLZlEB0RMOj97dXH-83" value="" style="endArrow=none;html=1;rounded=0;entryX=1;entryY=0.75;entryDx=0;entryDy=0;exitX=0.5;exitY=0;exitDx=0;exitDy=0;" parent="1" source="hnSrLLZlEB0RMOj97dXH-81" target="hnSrLLZlEB0RMOj97dXH-76" edge="1">
          <mxGeometry width="50" height="50" relative="1" as="geometry">
            <mxPoint x="920" y="-900" as="sourcePoint" />
            <mxPoint x="970" y="-950" as="targetPoint" />
          </mxGeometry>
        </mxCell>
        <mxCell id="hnSrLLZlEB0RMOj97dXH-84" value="2" style="ellipse;whiteSpace=wrap;html=1;aspect=fixed;" parent="1" vertex="1">
          <mxGeometry x="1100" y="-1080" width="40" height="40" as="geometry" />
        </mxCell>
        <mxCell id="hnSrLLZlEB0RMOj97dXH-85" value="" style="endArrow=none;html=1;rounded=0;exitX=0.596;exitY=-0.032;exitDx=0;exitDy=0;exitPerimeter=0;entryX=0;entryY=1;entryDx=0;entryDy=0;" parent="1" source="hnSrLLZlEB0RMOj97dXH-84" edge="1">
          <mxGeometry width="50" height="50" relative="1" as="geometry">
            <mxPoint x="1150" y="-990" as="sourcePoint" />
            <mxPoint x="1135.857864376269" y="-1105.857864376269" as="targetPoint" />
          </mxGeometry>
        </mxCell>
        <mxCell id="hnSrLLZlEB0RMOj97dXH-86" value="" style="endArrow=none;html=1;rounded=0;" parent="1" edge="1">
          <mxGeometry width="50" height="50" relative="1" as="geometry">
            <mxPoint x="1180" y="-1080" as="sourcePoint" />
            <mxPoint x="1164.142135623731" y="-1105.857864376269" as="targetPoint" />
          </mxGeometry>
        </mxCell>
        <mxCell id="hnSrLLZlEB0RMOj97dXH-87" value="4" style="rounded=1;whiteSpace=wrap;html=1;container=0;" parent="1" vertex="1">
          <mxGeometry x="1170" y="-1140" width="40" height="40" as="geometry" />
        </mxCell>
        <mxCell id="hnSrLLZlEB0RMOj97dXH-88" value="1" style="rounded=1;whiteSpace=wrap;html=1;container=0;" parent="1" vertex="1">
          <mxGeometry x="1130" y="-1140" width="40" height="40" as="geometry" />
        </mxCell>
        <mxCell id="hnSrLLZlEB0RMOj97dXH-89" value="3" style="ellipse;whiteSpace=wrap;html=1;aspect=fixed;" parent="1" vertex="1">
          <mxGeometry x="1170" y="-1080" width="40" height="40" as="geometry" />
        </mxCell>
        <mxCell id="hnSrLLZlEB0RMOj97dXH-91" value="" style="endArrow=none;html=1;rounded=0;entryX=1;entryY=0.75;entryDx=0;entryDy=0;exitX=0.5;exitY=0;exitDx=0;exitDy=0;" parent="1" target="hnSrLLZlEB0RMOj97dXH-87" edge="1">
          <mxGeometry width="50" height="50" relative="1" as="geometry">
            <mxPoint x="1250.0000000000002" y="-1080" as="sourcePoint" />
            <mxPoint x="1310" y="-1130" as="targetPoint" />
          </mxGeometry>
        </mxCell>
        <mxCell id="hnSrLLZlEB0RMOj97dXH-92" value="6" style="rounded=1;whiteSpace=wrap;html=1;container=0;" parent="1" vertex="1">
          <mxGeometry x="1280" y="-1080" width="40" height="40" as="geometry" />
        </mxCell>
        <mxCell id="hnSrLLZlEB0RMOj97dXH-93" value="5" style="rounded=1;whiteSpace=wrap;html=1;container=0;" parent="1" vertex="1">
          <mxGeometry x="1240" y="-1080" width="40" height="40" as="geometry" />
        </mxCell>
        <mxCell id="hnSrLLZlEB0RMOj97dXH-94" value="2" style="ellipse;whiteSpace=wrap;html=1;aspect=fixed;" parent="1" vertex="1">
          <mxGeometry x="1400" y="-1080" width="40" height="40" as="geometry" />
        </mxCell>
        <mxCell id="hnSrLLZlEB0RMOj97dXH-95" value="" style="endArrow=none;html=1;rounded=0;exitX=0.596;exitY=-0.032;exitDx=0;exitDy=0;exitPerimeter=0;entryX=0;entryY=1;entryDx=0;entryDy=0;" parent="1" source="hnSrLLZlEB0RMOj97dXH-94" edge="1">
          <mxGeometry width="50" height="50" relative="1" as="geometry">
            <mxPoint x="1450" y="-990" as="sourcePoint" />
            <mxPoint x="1435.857864376269" y="-1105.857864376269" as="targetPoint" />
          </mxGeometry>
        </mxCell>
        <mxCell id="hnSrLLZlEB0RMOj97dXH-96" value="" style="endArrow=none;html=1;rounded=0;" parent="1" edge="1">
          <mxGeometry width="50" height="50" relative="1" as="geometry">
            <mxPoint x="1480" y="-1080" as="sourcePoint" />
            <mxPoint x="1464.142135623731" y="-1105.857864376269" as="targetPoint" />
          </mxGeometry>
        </mxCell>
        <mxCell id="hnSrLLZlEB0RMOj97dXH-97" value="4" style="rounded=1;whiteSpace=wrap;html=1;container=0;" parent="1" vertex="1">
          <mxGeometry x="1470" y="-1140" width="40" height="40" as="geometry" />
        </mxCell>
        <mxCell id="hnSrLLZlEB0RMOj97dXH-98" value="1" style="rounded=1;whiteSpace=wrap;html=1;container=0;" parent="1" vertex="1">
          <mxGeometry x="1430" y="-1140" width="40" height="40" as="geometry" />
        </mxCell>
        <mxCell id="hnSrLLZlEB0RMOj97dXH-99" value="3" style="ellipse;whiteSpace=wrap;html=1;aspect=fixed;" parent="1" vertex="1">
          <mxGeometry x="1470" y="-1080" width="40" height="40" as="geometry" />
        </mxCell>
        <mxCell id="hnSrLLZlEB0RMOj97dXH-100" value="" style="endArrow=none;html=1;rounded=0;entryX=1;entryY=0.75;entryDx=0;entryDy=0;exitX=0.5;exitY=0;exitDx=0;exitDy=0;" parent="1" target="hnSrLLZlEB0RMOj97dXH-97" edge="1">
          <mxGeometry width="50" height="50" relative="1" as="geometry">
            <mxPoint x="1550.0000000000002" y="-1080" as="sourcePoint" />
            <mxPoint x="1610" y="-1130" as="targetPoint" />
          </mxGeometry>
        </mxCell>
        <mxCell id="hnSrLLZlEB0RMOj97dXH-101" value="6" style="rounded=1;whiteSpace=wrap;html=1;container=0;" parent="1" vertex="1">
          <mxGeometry x="1580" y="-1080" width="40" height="40" as="geometry" />
        </mxCell>
        <mxCell id="hnSrLLZlEB0RMOj97dXH-102" value="5" style="rounded=1;whiteSpace=wrap;html=1;container=0;" parent="1" vertex="1">
          <mxGeometry x="1540" y="-1080" width="40" height="40" as="geometry" />
        </mxCell>
        <mxCell id="hnSrLLZlEB0RMOj97dXH-103" value="7" style="rounded=1;whiteSpace=wrap;html=1;container=0;" parent="1" vertex="1">
          <mxGeometry x="1620" y="-1080" width="40" height="40" as="geometry" />
        </mxCell>
        <mxCell id="hnSrLLZlEB0RMOj97dXH-114" value="2" style="ellipse;whiteSpace=wrap;html=1;aspect=fixed;" parent="1" vertex="1">
          <mxGeometry x="1400" y="-930" width="40" height="40" as="geometry" />
        </mxCell>
        <mxCell id="hnSrLLZlEB0RMOj97dXH-115" value="" style="endArrow=none;html=1;rounded=0;exitX=0.596;exitY=-0.032;exitDx=0;exitDy=0;exitPerimeter=0;entryX=0;entryY=1;entryDx=0;entryDy=0;" parent="1" source="hnSrLLZlEB0RMOj97dXH-114" edge="1">
          <mxGeometry width="50" height="50" relative="1" as="geometry">
            <mxPoint x="1450" y="-840" as="sourcePoint" />
            <mxPoint x="1435.857864376269" y="-955.8578643762689" as="targetPoint" />
          </mxGeometry>
        </mxCell>
        <mxCell id="hnSrLLZlEB0RMOj97dXH-116" value="" style="endArrow=none;html=1;rounded=0;" parent="1" edge="1">
          <mxGeometry width="50" height="50" relative="1" as="geometry">
            <mxPoint x="1480" y="-930" as="sourcePoint" />
            <mxPoint x="1464.142135623731" y="-955.8578643762689" as="targetPoint" />
          </mxGeometry>
        </mxCell>
        <mxCell id="hnSrLLZlEB0RMOj97dXH-117" value="4" style="rounded=1;whiteSpace=wrap;html=1;container=0;" parent="1" vertex="1">
          <mxGeometry x="1470" y="-990" width="40" height="40" as="geometry" />
        </mxCell>
        <mxCell id="hnSrLLZlEB0RMOj97dXH-118" value="1" style="rounded=1;whiteSpace=wrap;html=1;container=0;" parent="1" vertex="1">
          <mxGeometry x="1430" y="-990" width="40" height="40" as="geometry" />
        </mxCell>
        <mxCell id="hnSrLLZlEB0RMOj97dXH-119" value="3" style="ellipse;whiteSpace=wrap;html=1;aspect=fixed;" parent="1" vertex="1">
          <mxGeometry x="1470" y="-930" width="40" height="40" as="geometry" />
        </mxCell>
        <mxCell id="hnSrLLZlEB0RMOj97dXH-120" value="" style="endArrow=none;html=1;rounded=0;entryX=1;entryY=0.75;entryDx=0;entryDy=0;exitX=0.5;exitY=0;exitDx=0;exitDy=0;" parent="1" target="hnSrLLZlEB0RMOj97dXH-117" edge="1">
          <mxGeometry width="50" height="50" relative="1" as="geometry">
            <mxPoint x="1550.0000000000002" y="-930" as="sourcePoint" />
            <mxPoint x="1610" y="-980" as="targetPoint" />
          </mxGeometry>
        </mxCell>
        <mxCell id="hnSrLLZlEB0RMOj97dXH-121" value="6" style="rounded=1;whiteSpace=wrap;html=1;container=0;" parent="1" vertex="1">
          <mxGeometry x="1510" y="-990" width="40" height="40" as="geometry" />
        </mxCell>
        <mxCell id="hnSrLLZlEB0RMOj97dXH-122" value="5" style="rounded=1;whiteSpace=wrap;html=1;container=0;" parent="1" vertex="1">
          <mxGeometry x="1540" y="-930" width="40" height="40" as="geometry" />
        </mxCell>
        <mxCell id="hnSrLLZlEB0RMOj97dXH-123" value="7" style="rounded=1;whiteSpace=wrap;html=1;container=0;" parent="1" vertex="1">
          <mxGeometry x="1580" y="-930" width="40" height="40" as="geometry" />
        </mxCell>
        <mxCell id="hnSrLLZlEB0RMOj97dXH-124" value="2" style="ellipse;whiteSpace=wrap;html=1;aspect=fixed;" parent="1" vertex="1">
          <mxGeometry x="1400" y="-710" width="40" height="40" as="geometry" />
        </mxCell>
        <mxCell id="hnSrLLZlEB0RMOj97dXH-125" value="" style="endArrow=none;html=1;rounded=0;exitX=0.596;exitY=-0.032;exitDx=0;exitDy=0;exitPerimeter=0;entryX=0;entryY=1;entryDx=0;entryDy=0;" parent="1" source="hnSrLLZlEB0RMOj97dXH-124" edge="1">
          <mxGeometry width="50" height="50" relative="1" as="geometry">
            <mxPoint x="1450" y="-620" as="sourcePoint" />
            <mxPoint x="1435.857864376269" y="-735.8578643762689" as="targetPoint" />
          </mxGeometry>
        </mxCell>
        <mxCell id="hnSrLLZlEB0RMOj97dXH-126" value="" style="endArrow=none;html=1;rounded=0;" parent="1" edge="1">
          <mxGeometry width="50" height="50" relative="1" as="geometry">
            <mxPoint x="1480" y="-710" as="sourcePoint" />
            <mxPoint x="1464.142135623731" y="-735.8578643762689" as="targetPoint" />
          </mxGeometry>
        </mxCell>
        <mxCell id="hnSrLLZlEB0RMOj97dXH-129" value="3" style="ellipse;whiteSpace=wrap;html=1;aspect=fixed;" parent="1" vertex="1">
          <mxGeometry x="1470" y="-710" width="40" height="40" as="geometry" />
        </mxCell>
        <mxCell id="hnSrLLZlEB0RMOj97dXH-130" value="" style="endArrow=none;html=1;rounded=0;entryX=0;entryY=1;entryDx=0;entryDy=0;exitX=0.5;exitY=0;exitDx=0;exitDy=0;" parent="1" edge="1">
          <mxGeometry width="50" height="50" relative="1" as="geometry">
            <mxPoint x="1550.0000000000002" y="-710" as="sourcePoint" />
            <mxPoint x="1564" y="-740" as="targetPoint" />
          </mxGeometry>
        </mxCell>
        <mxCell id="hnSrLLZlEB0RMOj97dXH-134" value="5" style="ellipse;whiteSpace=wrap;html=1;aspect=fixed;" parent="1" vertex="1">
          <mxGeometry x="1540" y="-710" width="40" height="40" as="geometry" />
        </mxCell>
        <mxCell id="hnSrLLZlEB0RMOj97dXH-135" value="7" style="ellipse;whiteSpace=wrap;html=1;aspect=fixed;" parent="1" vertex="1">
          <mxGeometry x="1604" y="-710" width="40" height="40" as="geometry" />
        </mxCell>
        <mxCell id="hnSrLLZlEB0RMOj97dXH-136" value="" style="endArrow=none;html=1;rounded=0;exitX=0.5;exitY=0;exitDx=0;exitDy=0;" parent="1" source="hnSrLLZlEB0RMOj97dXH-135" edge="1">
          <mxGeometry width="50" height="50" relative="1" as="geometry">
            <mxPoint x="1670" y="-720" as="sourcePoint" />
            <mxPoint x="1600" y="-740" as="targetPoint" />
          </mxGeometry>
        </mxCell>
        <mxCell id="hnSrLLZlEB0RMOj97dXH-137" value="4" style="ellipse;whiteSpace=wrap;html=1;aspect=fixed;" parent="1" vertex="1">
          <mxGeometry x="1500" y="-830" width="40" height="40" as="geometry" />
        </mxCell>
        <mxCell id="hnSrLLZlEB0RMOj97dXH-138" value="1" style="ellipse;whiteSpace=wrap;html=1;aspect=fixed;" parent="1" vertex="1">
          <mxGeometry x="1430" y="-770" width="40" height="40" as="geometry" />
        </mxCell>
        <mxCell id="hnSrLLZlEB0RMOj97dXH-139" value="6" style="ellipse;whiteSpace=wrap;html=1;aspect=fixed;" parent="1" vertex="1">
          <mxGeometry x="1564" y="-770" width="40" height="40" as="geometry" />
        </mxCell>
        <mxCell id="hnSrLLZlEB0RMOj97dXH-140" value="" style="endArrow=none;html=1;rounded=0;entryX=0;entryY=1;entryDx=0;entryDy=0;" parent="1" target="hnSrLLZlEB0RMOj97dXH-137" edge="1">
          <mxGeometry width="50" height="50" relative="1" as="geometry">
            <mxPoint x="1450" y="-770" as="sourcePoint" />
            <mxPoint x="1470" y="-790" as="targetPoint" />
          </mxGeometry>
        </mxCell>
        <mxCell id="hnSrLLZlEB0RMOj97dXH-141" value="" style="endArrow=none;html=1;rounded=0;exitX=0.65;exitY=0;exitDx=0;exitDy=0;exitPerimeter=0;" parent="1" source="hnSrLLZlEB0RMOj97dXH-139" edge="1">
          <mxGeometry width="50" height="50" relative="1" as="geometry">
            <mxPoint x="1590" y="-720" as="sourcePoint" />
            <mxPoint x="1540" y="-800" as="targetPoint" />
          </mxGeometry>
        </mxCell>
        <mxCell id="hnSrLLZlEB0RMOj97dXH-142" value="2" style="ellipse;whiteSpace=wrap;html=1;aspect=fixed;" parent="1" vertex="1">
          <mxGeometry x="1810" y="-1030" width="40" height="40" as="geometry" />
        </mxCell>
        <mxCell id="hnSrLLZlEB0RMOj97dXH-143" value="" style="endArrow=none;html=1;rounded=0;exitX=0.596;exitY=-0.032;exitDx=0;exitDy=0;exitPerimeter=0;entryX=0;entryY=1;entryDx=0;entryDy=0;" parent="1" source="hnSrLLZlEB0RMOj97dXH-142" edge="1">
          <mxGeometry width="50" height="50" relative="1" as="geometry">
            <mxPoint x="1860" y="-940" as="sourcePoint" />
            <mxPoint x="1845.857864376269" y="-1055.857864376269" as="targetPoint" />
          </mxGeometry>
        </mxCell>
        <mxCell id="hnSrLLZlEB0RMOj97dXH-144" value="" style="endArrow=none;html=1;rounded=0;" parent="1" edge="1">
          <mxGeometry width="50" height="50" relative="1" as="geometry">
            <mxPoint x="1890" y="-1030" as="sourcePoint" />
            <mxPoint x="1874.142135623731" y="-1055.857864376269" as="targetPoint" />
          </mxGeometry>
        </mxCell>
        <mxCell id="hnSrLLZlEB0RMOj97dXH-145" value="3" style="ellipse;whiteSpace=wrap;html=1;aspect=fixed;" parent="1" vertex="1">
          <mxGeometry x="1880" y="-1030" width="40" height="40" as="geometry" />
        </mxCell>
        <mxCell id="hnSrLLZlEB0RMOj97dXH-146" value="" style="endArrow=none;html=1;rounded=0;entryX=0;entryY=1;entryDx=0;entryDy=0;exitX=0.5;exitY=0;exitDx=0;exitDy=0;" parent="1" edge="1">
          <mxGeometry width="50" height="50" relative="1" as="geometry">
            <mxPoint x="1960.0000000000002" y="-1030" as="sourcePoint" />
            <mxPoint x="1974" y="-1060" as="targetPoint" />
          </mxGeometry>
        </mxCell>
        <mxCell id="hnSrLLZlEB0RMOj97dXH-147" value="5" style="ellipse;whiteSpace=wrap;html=1;aspect=fixed;" parent="1" vertex="1">
          <mxGeometry x="1950" y="-1030" width="40" height="40" as="geometry" />
        </mxCell>
        <mxCell id="hnSrLLZlEB0RMOj97dXH-149" value="" style="endArrow=none;html=1;rounded=0;exitX=0.5;exitY=0;exitDx=0;exitDy=0;" parent="1" edge="1">
          <mxGeometry width="50" height="50" relative="1" as="geometry">
            <mxPoint x="2034" y="-1030" as="sourcePoint" />
            <mxPoint x="2010" y="-1060" as="targetPoint" />
          </mxGeometry>
        </mxCell>
        <mxCell id="hnSrLLZlEB0RMOj97dXH-150" value="4" style="ellipse;whiteSpace=wrap;html=1;aspect=fixed;" parent="1" vertex="1">
          <mxGeometry x="1910" y="-1150" width="40" height="40" as="geometry" />
        </mxCell>
        <mxCell id="hnSrLLZlEB0RMOj97dXH-151" value="1" style="ellipse;whiteSpace=wrap;html=1;aspect=fixed;" parent="1" vertex="1">
          <mxGeometry x="1840" y="-1090" width="40" height="40" as="geometry" />
        </mxCell>
        <mxCell id="hnSrLLZlEB0RMOj97dXH-152" value="6" style="ellipse;whiteSpace=wrap;html=1;aspect=fixed;" parent="1" vertex="1">
          <mxGeometry x="1974" y="-1090" width="40" height="40" as="geometry" />
        </mxCell>
        <mxCell id="hnSrLLZlEB0RMOj97dXH-153" value="" style="endArrow=none;html=1;rounded=0;entryX=0;entryY=1;entryDx=0;entryDy=0;" parent="1" target="hnSrLLZlEB0RMOj97dXH-150" edge="1">
          <mxGeometry width="50" height="50" relative="1" as="geometry">
            <mxPoint x="1860" y="-1090" as="sourcePoint" />
            <mxPoint x="1880" y="-1110" as="targetPoint" />
          </mxGeometry>
        </mxCell>
        <mxCell id="hnSrLLZlEB0RMOj97dXH-154" value="" style="endArrow=none;html=1;rounded=0;exitX=0.65;exitY=0;exitDx=0;exitDy=0;exitPerimeter=0;" parent="1" source="hnSrLLZlEB0RMOj97dXH-152" edge="1">
          <mxGeometry width="50" height="50" relative="1" as="geometry">
            <mxPoint x="2000" y="-1040" as="sourcePoint" />
            <mxPoint x="1950" y="-1120" as="targetPoint" />
          </mxGeometry>
        </mxCell>
        <mxCell id="hnSrLLZlEB0RMOj97dXH-155" value="8" style="rounded=1;whiteSpace=wrap;html=1;container=0;" parent="1" vertex="1">
          <mxGeometry x="2060" y="-1030" width="40" height="40" as="geometry" />
        </mxCell>
        <mxCell id="hnSrLLZlEB0RMOj97dXH-156" value="7" style="rounded=1;whiteSpace=wrap;html=1;container=0;" parent="1" vertex="1">
          <mxGeometry x="2020" y="-1030" width="40" height="40" as="geometry" />
        </mxCell>
        <mxCell id="hnSrLLZlEB0RMOj97dXH-157" value="2" style="ellipse;whiteSpace=wrap;html=1;aspect=fixed;" parent="1" vertex="1">
          <mxGeometry x="2191" y="-1030" width="40" height="40" as="geometry" />
        </mxCell>
        <mxCell id="hnSrLLZlEB0RMOj97dXH-158" value="" style="endArrow=none;html=1;rounded=0;exitX=0.596;exitY=-0.032;exitDx=0;exitDy=0;exitPerimeter=0;entryX=0;entryY=1;entryDx=0;entryDy=0;" parent="1" source="hnSrLLZlEB0RMOj97dXH-157" edge="1">
          <mxGeometry width="50" height="50" relative="1" as="geometry">
            <mxPoint x="2241" y="-940" as="sourcePoint" />
            <mxPoint x="2226.857864376269" y="-1055.857864376269" as="targetPoint" />
          </mxGeometry>
        </mxCell>
        <mxCell id="hnSrLLZlEB0RMOj97dXH-159" value="" style="endArrow=none;html=1;rounded=0;" parent="1" edge="1">
          <mxGeometry width="50" height="50" relative="1" as="geometry">
            <mxPoint x="2271" y="-1030" as="sourcePoint" />
            <mxPoint x="2255.142135623731" y="-1055.857864376269" as="targetPoint" />
          </mxGeometry>
        </mxCell>
        <mxCell id="hnSrLLZlEB0RMOj97dXH-160" value="3" style="ellipse;whiteSpace=wrap;html=1;aspect=fixed;" parent="1" vertex="1">
          <mxGeometry x="2261" y="-1030" width="40" height="40" as="geometry" />
        </mxCell>
        <mxCell id="hnSrLLZlEB0RMOj97dXH-161" value="" style="endArrow=none;html=1;rounded=0;entryX=0;entryY=1;entryDx=0;entryDy=0;exitX=0.5;exitY=0;exitDx=0;exitDy=0;" parent="1" edge="1">
          <mxGeometry width="50" height="50" relative="1" as="geometry">
            <mxPoint x="2341" y="-1030" as="sourcePoint" />
            <mxPoint x="2355" y="-1060" as="targetPoint" />
          </mxGeometry>
        </mxCell>
        <mxCell id="hnSrLLZlEB0RMOj97dXH-162" value="5" style="ellipse;whiteSpace=wrap;html=1;aspect=fixed;" parent="1" vertex="1">
          <mxGeometry x="2331" y="-1030" width="40" height="40" as="geometry" />
        </mxCell>
        <mxCell id="hnSrLLZlEB0RMOj97dXH-163" value="" style="endArrow=none;html=1;rounded=0;exitX=0.5;exitY=0;exitDx=0;exitDy=0;" parent="1" edge="1">
          <mxGeometry width="50" height="50" relative="1" as="geometry">
            <mxPoint x="2415" y="-1030" as="sourcePoint" />
            <mxPoint x="2391" y="-1060" as="targetPoint" />
          </mxGeometry>
        </mxCell>
        <mxCell id="hnSrLLZlEB0RMOj97dXH-164" value="4" style="ellipse;whiteSpace=wrap;html=1;aspect=fixed;" parent="1" vertex="1">
          <mxGeometry x="2291" y="-1150" width="40" height="40" as="geometry" />
        </mxCell>
        <mxCell id="hnSrLLZlEB0RMOj97dXH-165" value="1" style="ellipse;whiteSpace=wrap;html=1;aspect=fixed;" parent="1" vertex="1">
          <mxGeometry x="2221" y="-1090" width="40" height="40" as="geometry" />
        </mxCell>
        <mxCell id="hnSrLLZlEB0RMOj97dXH-166" value="6" style="ellipse;whiteSpace=wrap;html=1;aspect=fixed;" parent="1" vertex="1">
          <mxGeometry x="2355" y="-1090" width="40" height="40" as="geometry" />
        </mxCell>
        <mxCell id="hnSrLLZlEB0RMOj97dXH-167" value="" style="endArrow=none;html=1;rounded=0;entryX=0;entryY=1;entryDx=0;entryDy=0;" parent="1" target="hnSrLLZlEB0RMOj97dXH-164" edge="1">
          <mxGeometry width="50" height="50" relative="1" as="geometry">
            <mxPoint x="2241" y="-1090" as="sourcePoint" />
            <mxPoint x="2261" y="-1110" as="targetPoint" />
          </mxGeometry>
        </mxCell>
        <mxCell id="hnSrLLZlEB0RMOj97dXH-168" value="" style="endArrow=none;html=1;rounded=0;exitX=0.65;exitY=0;exitDx=0;exitDy=0;exitPerimeter=0;" parent="1" source="hnSrLLZlEB0RMOj97dXH-166" edge="1">
          <mxGeometry width="50" height="50" relative="1" as="geometry">
            <mxPoint x="2381" y="-1040" as="sourcePoint" />
            <mxPoint x="2331" y="-1120" as="targetPoint" />
          </mxGeometry>
        </mxCell>
        <mxCell id="hnSrLLZlEB0RMOj97dXH-169" value="8" style="rounded=1;whiteSpace=wrap;html=1;container=0;" parent="1" vertex="1">
          <mxGeometry x="2441" y="-1030" width="40" height="40" as="geometry" />
        </mxCell>
        <mxCell id="hnSrLLZlEB0RMOj97dXH-170" value="7" style="rounded=1;whiteSpace=wrap;html=1;container=0;" parent="1" vertex="1">
          <mxGeometry x="2401" y="-1030" width="40" height="40" as="geometry" />
        </mxCell>
        <mxCell id="hnSrLLZlEB0RMOj97dXH-171" value="9" style="rounded=1;whiteSpace=wrap;html=1;container=0;" parent="1" vertex="1">
          <mxGeometry x="2481" y="-1030" width="40" height="40" as="geometry" />
        </mxCell>
        <mxCell id="hnSrLLZlEB0RMOj97dXH-172" value="2" style="ellipse;whiteSpace=wrap;html=1;aspect=fixed;" parent="1" vertex="1">
          <mxGeometry x="2191" y="-800" width="40" height="40" as="geometry" />
        </mxCell>
        <mxCell id="hnSrLLZlEB0RMOj97dXH-173" value="" style="endArrow=none;html=1;rounded=0;exitX=0.596;exitY=-0.032;exitDx=0;exitDy=0;exitPerimeter=0;entryX=0;entryY=1;entryDx=0;entryDy=0;" parent="1" source="hnSrLLZlEB0RMOj97dXH-172" edge="1">
          <mxGeometry width="50" height="50" relative="1" as="geometry">
            <mxPoint x="2241" y="-710" as="sourcePoint" />
            <mxPoint x="2226.857864376269" y="-825.8578643762689" as="targetPoint" />
          </mxGeometry>
        </mxCell>
        <mxCell id="hnSrLLZlEB0RMOj97dXH-174" value="" style="endArrow=none;html=1;rounded=0;" parent="1" edge="1">
          <mxGeometry width="50" height="50" relative="1" as="geometry">
            <mxPoint x="2271" y="-800" as="sourcePoint" />
            <mxPoint x="2255.142135623731" y="-825.8578643762689" as="targetPoint" />
          </mxGeometry>
        </mxCell>
        <mxCell id="hnSrLLZlEB0RMOj97dXH-175" value="3" style="ellipse;whiteSpace=wrap;html=1;aspect=fixed;" parent="1" vertex="1">
          <mxGeometry x="2261" y="-800" width="40" height="40" as="geometry" />
        </mxCell>
        <mxCell id="hnSrLLZlEB0RMOj97dXH-176" value="" style="endArrow=none;html=1;rounded=0;entryX=0;entryY=1;entryDx=0;entryDy=0;exitX=0.5;exitY=0;exitDx=0;exitDy=0;" parent="1" edge="1">
          <mxGeometry width="50" height="50" relative="1" as="geometry">
            <mxPoint x="2341" y="-800" as="sourcePoint" />
            <mxPoint x="2355" y="-830" as="targetPoint" />
          </mxGeometry>
        </mxCell>
        <mxCell id="hnSrLLZlEB0RMOj97dXH-177" value="5" style="ellipse;whiteSpace=wrap;html=1;aspect=fixed;" parent="1" vertex="1">
          <mxGeometry x="2320" y="-800" width="40" height="40" as="geometry" />
        </mxCell>
        <mxCell id="hnSrLLZlEB0RMOj97dXH-178" value="" style="endArrow=none;html=1;rounded=0;exitX=0.5;exitY=0;exitDx=0;exitDy=0;" parent="1" edge="1">
          <mxGeometry width="50" height="50" relative="1" as="geometry">
            <mxPoint x="2415" y="-800" as="sourcePoint" />
            <mxPoint x="2391" y="-830" as="targetPoint" />
          </mxGeometry>
        </mxCell>
        <mxCell id="hnSrLLZlEB0RMOj97dXH-179" value="4" style="ellipse;whiteSpace=wrap;html=1;aspect=fixed;" parent="1" vertex="1">
          <mxGeometry x="2291" y="-920" width="40" height="40" as="geometry" />
        </mxCell>
        <mxCell id="hnSrLLZlEB0RMOj97dXH-180" value="1" style="ellipse;whiteSpace=wrap;html=1;aspect=fixed;" parent="1" vertex="1">
          <mxGeometry x="2221" y="-860" width="40" height="40" as="geometry" />
        </mxCell>
        <mxCell id="hnSrLLZlEB0RMOj97dXH-182" value="" style="endArrow=none;html=1;rounded=0;entryX=0;entryY=1;entryDx=0;entryDy=0;" parent="1" target="hnSrLLZlEB0RMOj97dXH-179" edge="1">
          <mxGeometry width="50" height="50" relative="1" as="geometry">
            <mxPoint x="2241" y="-860" as="sourcePoint" />
            <mxPoint x="2261" y="-880" as="targetPoint" />
          </mxGeometry>
        </mxCell>
        <mxCell id="hnSrLLZlEB0RMOj97dXH-183" value="" style="endArrow=none;html=1;rounded=0;exitX=0.25;exitY=0;exitDx=0;exitDy=0;" parent="1" source="hnSrLLZlEB0RMOj97dXH-187" edge="1">
          <mxGeometry width="50" height="50" relative="1" as="geometry">
            <mxPoint x="2381" y="-860" as="sourcePoint" />
            <mxPoint x="2331" y="-890" as="targetPoint" />
          </mxGeometry>
        </mxCell>
        <mxCell id="hnSrLLZlEB0RMOj97dXH-184" value="8" style="rounded=1;whiteSpace=wrap;html=1;container=0;" parent="1" vertex="1">
          <mxGeometry x="2390" y="-870" width="40" height="40" as="geometry" />
        </mxCell>
        <mxCell id="hnSrLLZlEB0RMOj97dXH-187" value="6" style="rounded=1;whiteSpace=wrap;html=1;container=0;" parent="1" vertex="1">
          <mxGeometry x="2350" y="-870" width="40" height="40" as="geometry" />
        </mxCell>
        <mxCell id="hnSrLLZlEB0RMOj97dXH-188" value="7" style="ellipse;whiteSpace=wrap;html=1;aspect=fixed;" parent="1" vertex="1">
          <mxGeometry x="2395" y="-800" width="40" height="40" as="geometry" />
        </mxCell>
        <mxCell id="hnSrLLZlEB0RMOj97dXH-189" value="9" style="ellipse;whiteSpace=wrap;html=1;aspect=fixed;direction=west;" parent="1" vertex="1">
          <mxGeometry x="2470" y="-800" width="40" height="40" as="geometry" />
        </mxCell>
        <mxCell id="hnSrLLZlEB0RMOj97dXH-190" value="" style="endArrow=none;html=1;rounded=0;exitX=0.5;exitY=1;exitDx=0;exitDy=0;entryX=1;entryY=1;entryDx=0;entryDy=0;" parent="1" source="hnSrLLZlEB0RMOj97dXH-189" target="hnSrLLZlEB0RMOj97dXH-184" edge="1">
          <mxGeometry width="50" height="50" relative="1" as="geometry">
            <mxPoint x="2500" y="-790" as="sourcePoint" />
            <mxPoint x="2550" y="-840" as="targetPoint" />
          </mxGeometry>
        </mxCell>
        <mxCell id="hnSrLLZlEB0RMOj97dXH-202" value="2" style="ellipse;whiteSpace=wrap;html=1;aspect=fixed;" parent="1" vertex="1">
          <mxGeometry x="2630" y="-1030" width="40" height="40" as="geometry" />
        </mxCell>
        <mxCell id="hnSrLLZlEB0RMOj97dXH-203" value="" style="endArrow=none;html=1;rounded=0;exitX=0.596;exitY=-0.032;exitDx=0;exitDy=0;exitPerimeter=0;entryX=0;entryY=1;entryDx=0;entryDy=0;" parent="1" source="hnSrLLZlEB0RMOj97dXH-202" edge="1">
          <mxGeometry width="50" height="50" relative="1" as="geometry">
            <mxPoint x="2680" y="-940" as="sourcePoint" />
            <mxPoint x="2665.857864376269" y="-1055.857864376269" as="targetPoint" />
          </mxGeometry>
        </mxCell>
        <mxCell id="hnSrLLZlEB0RMOj97dXH-204" value="" style="endArrow=none;html=1;rounded=0;" parent="1" edge="1">
          <mxGeometry width="50" height="50" relative="1" as="geometry">
            <mxPoint x="2710" y="-1030" as="sourcePoint" />
            <mxPoint x="2694.142135623731" y="-1055.857864376269" as="targetPoint" />
          </mxGeometry>
        </mxCell>
        <mxCell id="hnSrLLZlEB0RMOj97dXH-205" value="3" style="ellipse;whiteSpace=wrap;html=1;aspect=fixed;" parent="1" vertex="1">
          <mxGeometry x="2700" y="-1030" width="40" height="40" as="geometry" />
        </mxCell>
        <mxCell id="hnSrLLZlEB0RMOj97dXH-206" value="" style="endArrow=none;html=1;rounded=0;entryX=0;entryY=1;entryDx=0;entryDy=0;exitX=0.5;exitY=0;exitDx=0;exitDy=0;" parent="1" edge="1">
          <mxGeometry width="50" height="50" relative="1" as="geometry">
            <mxPoint x="2780" y="-1030" as="sourcePoint" />
            <mxPoint x="2794" y="-1060" as="targetPoint" />
          </mxGeometry>
        </mxCell>
        <mxCell id="hnSrLLZlEB0RMOj97dXH-207" value="5" style="ellipse;whiteSpace=wrap;html=1;aspect=fixed;" parent="1" vertex="1">
          <mxGeometry x="2759" y="-1030" width="40" height="40" as="geometry" />
        </mxCell>
        <mxCell id="hnSrLLZlEB0RMOj97dXH-208" value="" style="endArrow=none;html=1;rounded=0;exitX=0.5;exitY=0;exitDx=0;exitDy=0;" parent="1" edge="1">
          <mxGeometry width="50" height="50" relative="1" as="geometry">
            <mxPoint x="2854" y="-1030" as="sourcePoint" />
            <mxPoint x="2830" y="-1060" as="targetPoint" />
          </mxGeometry>
        </mxCell>
        <mxCell id="hnSrLLZlEB0RMOj97dXH-209" value="4" style="ellipse;whiteSpace=wrap;html=1;aspect=fixed;" parent="1" vertex="1">
          <mxGeometry x="2730" y="-1150" width="40" height="40" as="geometry" />
        </mxCell>
        <mxCell id="hnSrLLZlEB0RMOj97dXH-210" value="1" style="ellipse;whiteSpace=wrap;html=1;aspect=fixed;" parent="1" vertex="1">
          <mxGeometry x="2660" y="-1090" width="40" height="40" as="geometry" />
        </mxCell>
        <mxCell id="hnSrLLZlEB0RMOj97dXH-211" value="" style="endArrow=none;html=1;rounded=0;entryX=0;entryY=1;entryDx=0;entryDy=0;" parent="1" target="hnSrLLZlEB0RMOj97dXH-209" edge="1">
          <mxGeometry width="50" height="50" relative="1" as="geometry">
            <mxPoint x="2680" y="-1090" as="sourcePoint" />
            <mxPoint x="2700" y="-1110" as="targetPoint" />
          </mxGeometry>
        </mxCell>
        <mxCell id="hnSrLLZlEB0RMOj97dXH-212" value="" style="endArrow=none;html=1;rounded=0;exitX=0.25;exitY=0;exitDx=0;exitDy=0;" parent="1" source="hnSrLLZlEB0RMOj97dXH-214" edge="1">
          <mxGeometry width="50" height="50" relative="1" as="geometry">
            <mxPoint x="2820" y="-1090" as="sourcePoint" />
            <mxPoint x="2770" y="-1120" as="targetPoint" />
          </mxGeometry>
        </mxCell>
        <mxCell id="hnSrLLZlEB0RMOj97dXH-213" value="8" style="rounded=1;whiteSpace=wrap;html=1;container=0;" parent="1" vertex="1">
          <mxGeometry x="2829" y="-1100" width="40" height="40" as="geometry" />
        </mxCell>
        <mxCell id="hnSrLLZlEB0RMOj97dXH-214" value="6" style="rounded=1;whiteSpace=wrap;html=1;container=0;" parent="1" vertex="1">
          <mxGeometry x="2789" y="-1100" width="40" height="40" as="geometry" />
        </mxCell>
        <mxCell id="hnSrLLZlEB0RMOj97dXH-215" value="7" style="ellipse;whiteSpace=wrap;html=1;aspect=fixed;" parent="1" vertex="1">
          <mxGeometry x="2834" y="-1030" width="40" height="40" as="geometry" />
        </mxCell>
        <mxCell id="hnSrLLZlEB0RMOj97dXH-217" value="" style="endArrow=none;html=1;rounded=0;exitX=0.5;exitY=1;exitDx=0;exitDy=0;entryX=1;entryY=1;entryDx=0;entryDy=0;" parent="1" target="hnSrLLZlEB0RMOj97dXH-213" edge="1">
          <mxGeometry width="50" height="50" relative="1" as="geometry">
            <mxPoint x="2929" y="-1030" as="sourcePoint" />
            <mxPoint x="2989" y="-1070" as="targetPoint" />
          </mxGeometry>
        </mxCell>
        <mxCell id="hnSrLLZlEB0RMOj97dXH-218" value="10" style="rounded=1;whiteSpace=wrap;html=1;container=0;" parent="1" vertex="1">
          <mxGeometry x="2950" y="-1030" width="40" height="40" as="geometry" />
        </mxCell>
        <mxCell id="hnSrLLZlEB0RMOj97dXH-219" value="9" style="rounded=1;whiteSpace=wrap;html=1;container=0;" parent="1" vertex="1">
          <mxGeometry x="2910" y="-1030" width="40" height="40" as="geometry" />
        </mxCell>
        <mxCell id="hnSrLLZlEB0RMOj97dXH-238" value="2" style="ellipse;whiteSpace=wrap;html=1;aspect=fixed;" parent="1" vertex="1">
          <mxGeometry x="3140" y="-1020" width="40" height="40" as="geometry" />
        </mxCell>
        <mxCell id="hnSrLLZlEB0RMOj97dXH-239" value="" style="endArrow=none;html=1;rounded=0;exitX=0.596;exitY=-0.032;exitDx=0;exitDy=0;exitPerimeter=0;entryX=0;entryY=1;entryDx=0;entryDy=0;" parent="1" source="hnSrLLZlEB0RMOj97dXH-238" edge="1">
          <mxGeometry width="50" height="50" relative="1" as="geometry">
            <mxPoint x="3190" y="-930" as="sourcePoint" />
            <mxPoint x="3175.857864376269" y="-1045.857864376269" as="targetPoint" />
          </mxGeometry>
        </mxCell>
        <mxCell id="hnSrLLZlEB0RMOj97dXH-240" value="" style="endArrow=none;html=1;rounded=0;" parent="1" edge="1">
          <mxGeometry width="50" height="50" relative="1" as="geometry">
            <mxPoint x="3220" y="-1020" as="sourcePoint" />
            <mxPoint x="3204.142135623731" y="-1045.857864376269" as="targetPoint" />
          </mxGeometry>
        </mxCell>
        <mxCell id="hnSrLLZlEB0RMOj97dXH-241" value="3" style="ellipse;whiteSpace=wrap;html=1;aspect=fixed;" parent="1" vertex="1">
          <mxGeometry x="3210" y="-1020" width="40" height="40" as="geometry" />
        </mxCell>
        <mxCell id="hnSrLLZlEB0RMOj97dXH-242" value="" style="endArrow=none;html=1;rounded=0;entryX=0;entryY=1;entryDx=0;entryDy=0;exitX=0.5;exitY=0;exitDx=0;exitDy=0;" parent="1" edge="1">
          <mxGeometry width="50" height="50" relative="1" as="geometry">
            <mxPoint x="3290" y="-1020" as="sourcePoint" />
            <mxPoint x="3304" y="-1050" as="targetPoint" />
          </mxGeometry>
        </mxCell>
        <mxCell id="hnSrLLZlEB0RMOj97dXH-243" value="5" style="ellipse;whiteSpace=wrap;html=1;aspect=fixed;" parent="1" vertex="1">
          <mxGeometry x="3269" y="-1020" width="40" height="40" as="geometry" />
        </mxCell>
        <mxCell id="hnSrLLZlEB0RMOj97dXH-244" value="" style="endArrow=none;html=1;rounded=0;exitX=0.5;exitY=0;exitDx=0;exitDy=0;" parent="1" edge="1">
          <mxGeometry width="50" height="50" relative="1" as="geometry">
            <mxPoint x="3364" y="-1020" as="sourcePoint" />
            <mxPoint x="3340" y="-1050" as="targetPoint" />
          </mxGeometry>
        </mxCell>
        <mxCell id="hnSrLLZlEB0RMOj97dXH-245" value="4" style="ellipse;whiteSpace=wrap;html=1;aspect=fixed;" parent="1" vertex="1">
          <mxGeometry x="3240" y="-1140" width="40" height="40" as="geometry" />
        </mxCell>
        <mxCell id="hnSrLLZlEB0RMOj97dXH-246" value="1" style="ellipse;whiteSpace=wrap;html=1;aspect=fixed;" parent="1" vertex="1">
          <mxGeometry x="3170" y="-1080" width="40" height="40" as="geometry" />
        </mxCell>
        <mxCell id="hnSrLLZlEB0RMOj97dXH-247" value="" style="endArrow=none;html=1;rounded=0;entryX=0;entryY=1;entryDx=0;entryDy=0;" parent="1" target="hnSrLLZlEB0RMOj97dXH-245" edge="1">
          <mxGeometry width="50" height="50" relative="1" as="geometry">
            <mxPoint x="3190" y="-1080" as="sourcePoint" />
            <mxPoint x="3210" y="-1100" as="targetPoint" />
          </mxGeometry>
        </mxCell>
        <mxCell id="hnSrLLZlEB0RMOj97dXH-248" value="" style="endArrow=none;html=1;rounded=0;exitX=0.25;exitY=0;exitDx=0;exitDy=0;" parent="1" source="hnSrLLZlEB0RMOj97dXH-250" edge="1">
          <mxGeometry width="50" height="50" relative="1" as="geometry">
            <mxPoint x="3330" y="-1080" as="sourcePoint" />
            <mxPoint x="3280" y="-1110" as="targetPoint" />
          </mxGeometry>
        </mxCell>
        <mxCell id="hnSrLLZlEB0RMOj97dXH-249" value="8" style="rounded=1;whiteSpace=wrap;html=1;container=0;" parent="1" vertex="1">
          <mxGeometry x="3339" y="-1090" width="40" height="40" as="geometry" />
        </mxCell>
        <mxCell id="hnSrLLZlEB0RMOj97dXH-250" value="6" style="rounded=1;whiteSpace=wrap;html=1;container=0;" parent="1" vertex="1">
          <mxGeometry x="3299" y="-1090" width="40" height="40" as="geometry" />
        </mxCell>
        <mxCell id="hnSrLLZlEB0RMOj97dXH-251" value="7" style="ellipse;whiteSpace=wrap;html=1;aspect=fixed;" parent="1" vertex="1">
          <mxGeometry x="3344" y="-1020" width="40" height="40" as="geometry" />
        </mxCell>
        <mxCell id="hnSrLLZlEB0RMOj97dXH-252" value="" style="endArrow=none;html=1;rounded=0;exitX=0.5;exitY=1;exitDx=0;exitDy=0;entryX=1;entryY=1;entryDx=0;entryDy=0;" parent="1" target="hnSrLLZlEB0RMOj97dXH-249" edge="1">
          <mxGeometry width="50" height="50" relative="1" as="geometry">
            <mxPoint x="3439" y="-1020" as="sourcePoint" />
            <mxPoint x="3499" y="-1060" as="targetPoint" />
          </mxGeometry>
        </mxCell>
        <mxCell id="hnSrLLZlEB0RMOj97dXH-253" value="10" style="rounded=1;whiteSpace=wrap;html=1;container=0;" parent="1" vertex="1">
          <mxGeometry x="3460" y="-1020" width="40" height="40" as="geometry" />
        </mxCell>
        <mxCell id="hnSrLLZlEB0RMOj97dXH-254" value="9" style="rounded=1;whiteSpace=wrap;html=1;container=0;" parent="1" vertex="1">
          <mxGeometry x="3420" y="-1020" width="40" height="40" as="geometry" />
        </mxCell>
        <mxCell id="hnSrLLZlEB0RMOj97dXH-255" value="11" style="rounded=1;whiteSpace=wrap;html=1;container=0;" parent="1" vertex="1">
          <mxGeometry x="3500" y="-1020" width="40" height="40" as="geometry" />
        </mxCell>
        <mxCell id="hnSrLLZlEB0RMOj97dXH-274" value="2" style="ellipse;whiteSpace=wrap;html=1;aspect=fixed;" parent="1" vertex="1">
          <mxGeometry x="3159" y="-800" width="40" height="40" as="geometry" />
        </mxCell>
        <mxCell id="hnSrLLZlEB0RMOj97dXH-275" value="" style="endArrow=none;html=1;rounded=0;exitX=0.596;exitY=-0.032;exitDx=0;exitDy=0;exitPerimeter=0;entryX=0;entryY=1;entryDx=0;entryDy=0;" parent="1" source="hnSrLLZlEB0RMOj97dXH-274" edge="1">
          <mxGeometry width="50" height="50" relative="1" as="geometry">
            <mxPoint x="3209" y="-710" as="sourcePoint" />
            <mxPoint x="3194.857864376269" y="-825.8578643762689" as="targetPoint" />
          </mxGeometry>
        </mxCell>
        <mxCell id="hnSrLLZlEB0RMOj97dXH-276" value="" style="endArrow=none;html=1;rounded=0;" parent="1" edge="1">
          <mxGeometry width="50" height="50" relative="1" as="geometry">
            <mxPoint x="3239" y="-800" as="sourcePoint" />
            <mxPoint x="3223.142135623731" y="-825.8578643762689" as="targetPoint" />
          </mxGeometry>
        </mxCell>
        <mxCell id="hnSrLLZlEB0RMOj97dXH-277" value="3" style="ellipse;whiteSpace=wrap;html=1;aspect=fixed;" parent="1" vertex="1">
          <mxGeometry x="3229" y="-800" width="40" height="40" as="geometry" />
        </mxCell>
        <mxCell id="hnSrLLZlEB0RMOj97dXH-278" value="" style="endArrow=none;html=1;rounded=0;entryX=0;entryY=1;entryDx=0;entryDy=0;exitX=0.5;exitY=0;exitDx=0;exitDy=0;" parent="1" edge="1">
          <mxGeometry width="50" height="50" relative="1" as="geometry">
            <mxPoint x="3309" y="-800" as="sourcePoint" />
            <mxPoint x="3323" y="-830" as="targetPoint" />
          </mxGeometry>
        </mxCell>
        <mxCell id="hnSrLLZlEB0RMOj97dXH-279" value="5" style="ellipse;whiteSpace=wrap;html=1;aspect=fixed;" parent="1" vertex="1">
          <mxGeometry x="3288" y="-800" width="40" height="40" as="geometry" />
        </mxCell>
        <mxCell id="hnSrLLZlEB0RMOj97dXH-280" value="" style="endArrow=none;html=1;rounded=0;exitX=0.5;exitY=0;exitDx=0;exitDy=0;" parent="1" edge="1">
          <mxGeometry width="50" height="50" relative="1" as="geometry">
            <mxPoint x="3383" y="-800" as="sourcePoint" />
            <mxPoint x="3359" y="-830" as="targetPoint" />
          </mxGeometry>
        </mxCell>
        <mxCell id="hnSrLLZlEB0RMOj97dXH-281" value="4" style="ellipse;whiteSpace=wrap;html=1;aspect=fixed;" parent="1" vertex="1">
          <mxGeometry x="3259" y="-920" width="40" height="40" as="geometry" />
        </mxCell>
        <mxCell id="hnSrLLZlEB0RMOj97dXH-282" value="1" style="ellipse;whiteSpace=wrap;html=1;aspect=fixed;" parent="1" vertex="1">
          <mxGeometry x="3189" y="-860" width="40" height="40" as="geometry" />
        </mxCell>
        <mxCell id="hnSrLLZlEB0RMOj97dXH-283" value="" style="endArrow=none;html=1;rounded=0;entryX=0;entryY=1;entryDx=0;entryDy=0;" parent="1" target="hnSrLLZlEB0RMOj97dXH-281" edge="1">
          <mxGeometry width="50" height="50" relative="1" as="geometry">
            <mxPoint x="3209" y="-860" as="sourcePoint" />
            <mxPoint x="3229" y="-880" as="targetPoint" />
          </mxGeometry>
        </mxCell>
        <mxCell id="hnSrLLZlEB0RMOj97dXH-284" value="" style="endArrow=none;html=1;rounded=0;exitX=0.25;exitY=0;exitDx=0;exitDy=0;" parent="1" source="hnSrLLZlEB0RMOj97dXH-286" edge="1">
          <mxGeometry width="50" height="50" relative="1" as="geometry">
            <mxPoint x="3349" y="-860" as="sourcePoint" />
            <mxPoint x="3299" y="-890" as="targetPoint" />
          </mxGeometry>
        </mxCell>
        <mxCell id="hnSrLLZlEB0RMOj97dXH-285" value="8" style="rounded=1;whiteSpace=wrap;html=1;container=0;" parent="1" vertex="1">
          <mxGeometry x="3358" y="-870" width="40" height="40" as="geometry" />
        </mxCell>
        <mxCell id="hnSrLLZlEB0RMOj97dXH-286" value="6" style="rounded=1;whiteSpace=wrap;html=1;container=0;" parent="1" vertex="1">
          <mxGeometry x="3318" y="-870" width="40" height="40" as="geometry" />
        </mxCell>
        <mxCell id="hnSrLLZlEB0RMOj97dXH-287" value="7" style="ellipse;whiteSpace=wrap;html=1;aspect=fixed;" parent="1" vertex="1">
          <mxGeometry x="3363" y="-800" width="40" height="40" as="geometry" />
        </mxCell>
        <mxCell id="hnSrLLZlEB0RMOj97dXH-288" value="" style="endArrow=none;html=1;rounded=0;exitX=0.5;exitY=1;exitDx=0;exitDy=0;entryX=1;entryY=1;entryDx=0;entryDy=0;" parent="1" target="hnSrLLZlEB0RMOj97dXH-285" edge="1">
          <mxGeometry width="50" height="50" relative="1" as="geometry">
            <mxPoint x="3458" y="-800" as="sourcePoint" />
            <mxPoint x="3518" y="-840" as="targetPoint" />
          </mxGeometry>
        </mxCell>
        <mxCell id="hnSrLLZlEB0RMOj97dXH-289" value="10" style="rounded=1;whiteSpace=wrap;html=1;container=0;" parent="1" vertex="1">
          <mxGeometry x="3398" y="-870" width="40" height="40" as="geometry" />
        </mxCell>
        <mxCell id="hnSrLLZlEB0RMOj97dXH-290" value="9" style="rounded=1;whiteSpace=wrap;html=1;container=0;" parent="1" vertex="1">
          <mxGeometry x="3439" y="-800" width="40" height="40" as="geometry" />
        </mxCell>
        <mxCell id="hnSrLLZlEB0RMOj97dXH-291" value="11" style="rounded=1;whiteSpace=wrap;html=1;container=0;" parent="1" vertex="1">
          <mxGeometry x="3479" y="-800" width="40" height="40" as="geometry" />
        </mxCell>
        <mxCell id="hnSrLLZlEB0RMOj97dXH-292" value="2" style="ellipse;whiteSpace=wrap;html=1;aspect=fixed;" parent="1" vertex="1">
          <mxGeometry x="3159" y="-570" width="40" height="40" as="geometry" />
        </mxCell>
        <mxCell id="hnSrLLZlEB0RMOj97dXH-293" value="" style="endArrow=none;html=1;rounded=0;exitX=0.596;exitY=-0.032;exitDx=0;exitDy=0;exitPerimeter=0;entryX=0;entryY=1;entryDx=0;entryDy=0;" parent="1" source="hnSrLLZlEB0RMOj97dXH-292" edge="1">
          <mxGeometry width="50" height="50" relative="1" as="geometry">
            <mxPoint x="3209" y="-480" as="sourcePoint" />
            <mxPoint x="3194.857864376269" y="-595.8578643762689" as="targetPoint" />
          </mxGeometry>
        </mxCell>
        <mxCell id="hnSrLLZlEB0RMOj97dXH-294" value="" style="endArrow=none;html=1;rounded=0;" parent="1" edge="1">
          <mxGeometry width="50" height="50" relative="1" as="geometry">
            <mxPoint x="3239" y="-570" as="sourcePoint" />
            <mxPoint x="3223.142135623731" y="-595.8578643762689" as="targetPoint" />
          </mxGeometry>
        </mxCell>
        <mxCell id="hnSrLLZlEB0RMOj97dXH-295" value="3" style="ellipse;whiteSpace=wrap;html=1;aspect=fixed;" parent="1" vertex="1">
          <mxGeometry x="3229" y="-570" width="40" height="40" as="geometry" />
        </mxCell>
        <mxCell id="hnSrLLZlEB0RMOj97dXH-296" value="" style="endArrow=none;html=1;rounded=0;entryX=0;entryY=1;entryDx=0;entryDy=0;exitX=0.5;exitY=0;exitDx=0;exitDy=0;" parent="1" edge="1">
          <mxGeometry width="50" height="50" relative="1" as="geometry">
            <mxPoint x="3309" y="-570" as="sourcePoint" />
            <mxPoint x="3323" y="-600" as="targetPoint" />
          </mxGeometry>
        </mxCell>
        <mxCell id="hnSrLLZlEB0RMOj97dXH-297" value="5" style="ellipse;whiteSpace=wrap;html=1;aspect=fixed;" parent="1" vertex="1">
          <mxGeometry x="3288" y="-570" width="40" height="40" as="geometry" />
        </mxCell>
        <mxCell id="hnSrLLZlEB0RMOj97dXH-298" value="" style="endArrow=none;html=1;rounded=0;exitX=0.5;exitY=0;exitDx=0;exitDy=0;" parent="1" edge="1">
          <mxGeometry width="50" height="50" relative="1" as="geometry">
            <mxPoint x="3383" y="-570" as="sourcePoint" />
            <mxPoint x="3359" y="-600" as="targetPoint" />
          </mxGeometry>
        </mxCell>
        <mxCell id="hnSrLLZlEB0RMOj97dXH-300" value="1" style="ellipse;whiteSpace=wrap;html=1;aspect=fixed;" parent="1" vertex="1">
          <mxGeometry x="3189" y="-630" width="40" height="40" as="geometry" />
        </mxCell>
        <mxCell id="hnSrLLZlEB0RMOj97dXH-301" value="" style="endArrow=none;html=1;rounded=0;entryX=0.25;entryY=1;entryDx=0;entryDy=0;" parent="1" target="hnSrLLZlEB0RMOj97dXH-311" edge="1">
          <mxGeometry width="50" height="50" relative="1" as="geometry">
            <mxPoint x="3209" y="-630" as="sourcePoint" />
            <mxPoint x="3265" y="-656" as="targetPoint" />
          </mxGeometry>
        </mxCell>
        <mxCell id="hnSrLLZlEB0RMOj97dXH-302" value="" style="endArrow=none;html=1;rounded=0;exitX=0.25;exitY=0;exitDx=0;exitDy=0;entryX=0;entryY=1;entryDx=0;entryDy=0;" parent="1" target="hnSrLLZlEB0RMOj97dXH-310" edge="1">
          <mxGeometry width="50" height="50" relative="1" as="geometry">
            <mxPoint x="3328" y="-640" as="sourcePoint" />
            <mxPoint x="3299" y="-660" as="targetPoint" />
          </mxGeometry>
        </mxCell>
        <mxCell id="hnSrLLZlEB0RMOj97dXH-305" value="7" style="ellipse;whiteSpace=wrap;html=1;aspect=fixed;" parent="1" vertex="1">
          <mxGeometry x="3363" y="-570" width="40" height="40" as="geometry" />
        </mxCell>
        <mxCell id="hnSrLLZlEB0RMOj97dXH-306" value="" style="endArrow=none;html=1;rounded=0;entryX=0.7;entryY=0.972;entryDx=0;entryDy=0;entryPerimeter=0;" parent="1" source="hnSrLLZlEB0RMOj97dXH-315" target="hnSrLLZlEB0RMOj97dXH-314" edge="1">
          <mxGeometry width="50" height="50" relative="1" as="geometry">
            <mxPoint x="3458" y="-570" as="sourcePoint" />
            <mxPoint x="3398" y="-600" as="targetPoint" />
          </mxGeometry>
        </mxCell>
        <mxCell id="hnSrLLZlEB0RMOj97dXH-310" value="8" style="rounded=1;whiteSpace=wrap;html=1;container=0;" parent="1" vertex="1">
          <mxGeometry x="3309" y="-700" width="40" height="40" as="geometry" />
        </mxCell>
        <mxCell id="hnSrLLZlEB0RMOj97dXH-311" value="4" style="rounded=1;whiteSpace=wrap;html=1;container=0;" parent="1" vertex="1">
          <mxGeometry x="3269" y="-700" width="40" height="40" as="geometry" />
        </mxCell>
        <mxCell id="hnSrLLZlEB0RMOj97dXH-312" value="" style="endArrow=none;html=1;rounded=0;exitX=0.275;exitY=0;exitDx=0;exitDy=0;exitPerimeter=0;" parent="1" source="hnSrLLZlEB0RMOj97dXH-314" edge="1">
          <mxGeometry width="50" height="50" relative="1" as="geometry">
            <mxPoint x="3430" y="-640" as="sourcePoint" />
            <mxPoint x="3350" y="-660" as="targetPoint" />
          </mxGeometry>
        </mxCell>
        <mxCell id="hnSrLLZlEB0RMOj97dXH-313" value="6" style="ellipse;whiteSpace=wrap;html=1;aspect=fixed;" parent="1" vertex="1">
          <mxGeometry x="3323" y="-640" width="40" height="40" as="geometry" />
        </mxCell>
        <mxCell id="hnSrLLZlEB0RMOj97dXH-314" value="10" style="ellipse;whiteSpace=wrap;html=1;aspect=fixed;" parent="1" vertex="1">
          <mxGeometry x="3438" y="-640" width="40" height="40" as="geometry" />
        </mxCell>
        <mxCell id="hnSrLLZlEB0RMOj97dXH-315" value="9" style="ellipse;whiteSpace=wrap;html=1;aspect=fixed;" parent="1" vertex="1">
          <mxGeometry x="3420" y="-570" width="40" height="40" as="geometry" />
        </mxCell>
        <mxCell id="hnSrLLZlEB0RMOj97dXH-316" value="" style="endArrow=none;html=1;rounded=0;" parent="1" source="hnSrLLZlEB0RMOj97dXH-317" target="hnSrLLZlEB0RMOj97dXH-314" edge="1">
          <mxGeometry width="50" height="50" relative="1" as="geometry">
            <mxPoint x="3460" y="-560" as="sourcePoint" />
            <mxPoint x="3510" y="-610" as="targetPoint" />
          </mxGeometry>
        </mxCell>
        <mxCell id="hnSrLLZlEB0RMOj97dXH-317" value="11" style="ellipse;whiteSpace=wrap;html=1;aspect=fixed;" parent="1" vertex="1">
          <mxGeometry x="3490" y="-570" width="40" height="40" as="geometry" />
        </mxCell>
        <mxCell id="hnSrLLZlEB0RMOj97dXH-348" value="4" style="ellipse;whiteSpace=wrap;html=1;aspect=fixed;" parent="1" vertex="1">
          <mxGeometry x="4015" y="-1080" width="40" height="40" as="geometry" />
        </mxCell>
        <mxCell id="hnSrLLZlEB0RMOj97dXH-349" value="2" style="ellipse;whiteSpace=wrap;html=1;aspect=fixed;" parent="1" vertex="1">
          <mxGeometry x="3935" y="-990" width="40" height="40" as="geometry" />
        </mxCell>
        <mxCell id="hnSrLLZlEB0RMOj97dXH-350" value="" style="endArrow=none;html=1;rounded=0;exitX=0.5;exitY=0;exitDx=0;exitDy=0;" parent="1" source="hnSrLLZlEB0RMOj97dXH-349" target="hnSrLLZlEB0RMOj97dXH-348" edge="1">
          <mxGeometry width="50" height="50" relative="1" as="geometry">
            <mxPoint x="4015" y="-970" as="sourcePoint" />
            <mxPoint x="4065" y="-1020" as="targetPoint" />
          </mxGeometry>
        </mxCell>
        <mxCell id="hnSrLLZlEB0RMOj97dXH-351" value="" style="endArrow=none;html=1;rounded=0;exitX=0.5;exitY=0;exitDx=0;exitDy=0;entryX=1;entryY=1;entryDx=0;entryDy=0;" parent="1" source="hnSrLLZlEB0RMOj97dXH-365" target="hnSrLLZlEB0RMOj97dXH-348" edge="1">
          <mxGeometry width="50" height="50" relative="1" as="geometry">
            <mxPoint x="4145" y="-990" as="sourcePoint" />
            <mxPoint x="4055" y="-1020" as="targetPoint" />
          </mxGeometry>
        </mxCell>
        <mxCell id="hnSrLLZlEB0RMOj97dXH-352" value="1" style="ellipse;whiteSpace=wrap;html=1;aspect=fixed;" parent="1" vertex="1">
          <mxGeometry x="3885" y="-930" width="40" height="40" as="geometry" />
        </mxCell>
        <mxCell id="hnSrLLZlEB0RMOj97dXH-353" value="3" style="ellipse;whiteSpace=wrap;html=1;aspect=fixed;" parent="1" vertex="1">
          <mxGeometry x="3985" y="-930" width="40" height="40" as="geometry" />
        </mxCell>
        <mxCell id="hnSrLLZlEB0RMOj97dXH-354" value="5" style="ellipse;whiteSpace=wrap;html=1;aspect=fixed;" parent="1" vertex="1">
          <mxGeometry x="4045" y="-930" width="40" height="40" as="geometry" />
        </mxCell>
        <mxCell id="hnSrLLZlEB0RMOj97dXH-355" value="7" style="ellipse;whiteSpace=wrap;html=1;aspect=fixed;" parent="1" vertex="1">
          <mxGeometry x="4125" y="-930" width="40" height="40" as="geometry" />
        </mxCell>
        <mxCell id="hnSrLLZlEB0RMOj97dXH-356" value="" style="endArrow=none;html=1;rounded=0;exitX=0.5;exitY=0;exitDx=0;exitDy=0;entryX=0;entryY=1;entryDx=0;entryDy=0;" parent="1" source="hnSrLLZlEB0RMOj97dXH-352" target="hnSrLLZlEB0RMOj97dXH-349" edge="1">
          <mxGeometry width="50" height="50" relative="1" as="geometry">
            <mxPoint x="3925" y="-870" as="sourcePoint" />
            <mxPoint x="3975" y="-920" as="targetPoint" />
          </mxGeometry>
        </mxCell>
        <mxCell id="hnSrLLZlEB0RMOj97dXH-357" value="" style="endArrow=none;html=1;rounded=0;entryX=1;entryY=1;entryDx=0;entryDy=0;exitX=0.5;exitY=0;exitDx=0;exitDy=0;" parent="1" source="hnSrLLZlEB0RMOj97dXH-353" target="hnSrLLZlEB0RMOj97dXH-349" edge="1">
          <mxGeometry width="50" height="50" relative="1" as="geometry">
            <mxPoint x="3995" y="-890" as="sourcePoint" />
            <mxPoint x="4045" y="-940" as="targetPoint" />
          </mxGeometry>
        </mxCell>
        <mxCell id="hnSrLLZlEB0RMOj97dXH-358" value="" style="endArrow=none;html=1;rounded=0;exitX=0.5;exitY=0;exitDx=0;exitDy=0;entryX=0.031;entryY=0.953;entryDx=0;entryDy=0;entryPerimeter=0;" parent="1" source="hnSrLLZlEB0RMOj97dXH-354" target="hnSrLLZlEB0RMOj97dXH-365" edge="1">
          <mxGeometry width="50" height="50" relative="1" as="geometry">
            <mxPoint x="4095" y="-900" as="sourcePoint" />
            <mxPoint x="4145" y="-950" as="targetPoint" />
          </mxGeometry>
        </mxCell>
        <mxCell id="hnSrLLZlEB0RMOj97dXH-359" value="" style="endArrow=none;html=1;rounded=0;exitX=0.5;exitY=0;exitDx=0;exitDy=0;" parent="1" source="hnSrLLZlEB0RMOj97dXH-355" target="hnSrLLZlEB0RMOj97dXH-365" edge="1">
          <mxGeometry width="50" height="50" relative="1" as="geometry">
            <mxPoint x="4115" y="-830" as="sourcePoint" />
            <mxPoint x="4145" y="-940" as="targetPoint" />
          </mxGeometry>
        </mxCell>
        <mxCell id="hnSrLLZlEB0RMOj97dXH-360" value="" style="endArrow=none;html=1;rounded=0;exitX=0.25;exitY=0;exitDx=0;exitDy=0;" parent="1" source="hnSrLLZlEB0RMOj97dXH-362" target="hnSrLLZlEB0RMOj97dXH-363" edge="1">
          <mxGeometry width="50" height="50" relative="1" as="geometry">
            <mxPoint x="4175" y="-870" as="sourcePoint" />
            <mxPoint x="4195" y="-940" as="targetPoint" />
          </mxGeometry>
        </mxCell>
        <mxCell id="hnSrLLZlEB0RMOj97dXH-361" value="11" style="rounded=1;whiteSpace=wrap;html=1;" parent="1" vertex="1">
          <mxGeometry x="4255" y="-920" width="40" height="40" as="geometry" />
        </mxCell>
        <mxCell id="hnSrLLZlEB0RMOj97dXH-362" value="9" style="rounded=1;whiteSpace=wrap;html=1;container=0;" parent="1" vertex="1">
          <mxGeometry x="4175" y="-920" width="40" height="40" as="geometry" />
        </mxCell>
        <mxCell id="hnSrLLZlEB0RMOj97dXH-363" value="10" style="rounded=1;whiteSpace=wrap;html=1;container=0;" parent="1" vertex="1">
          <mxGeometry x="4209" y="-990" width="40" height="40" as="geometry" />
        </mxCell>
        <mxCell id="hnSrLLZlEB0RMOj97dXH-364" value="" style="endArrow=none;html=1;rounded=0;" parent="1" source="hnSrLLZlEB0RMOj97dXH-361" edge="1">
          <mxGeometry width="50" height="50" relative="1" as="geometry">
            <mxPoint x="4245" y="-890" as="sourcePoint" />
            <mxPoint x="4225" y="-950" as="targetPoint" />
          </mxGeometry>
        </mxCell>
        <mxCell id="hnSrLLZlEB0RMOj97dXH-365" value="6" style="rounded=1;whiteSpace=wrap;html=1;container=0;" parent="1" vertex="1">
          <mxGeometry x="4085" y="-995" width="40" height="40" as="geometry" />
        </mxCell>
        <mxCell id="hnSrLLZlEB0RMOj97dXH-366" value="8" style="rounded=1;whiteSpace=wrap;html=1;container=0;" parent="1" vertex="1">
          <mxGeometry x="4115" y="-1150" width="40" height="40" as="geometry" />
        </mxCell>
        <mxCell id="hnSrLLZlEB0RMOj97dXH-367" value="" style="endArrow=none;html=1;rounded=0;entryX=0.656;entryY=1.087;entryDx=0;entryDy=0;entryPerimeter=0;" parent="1" source="hnSrLLZlEB0RMOj97dXH-363" target="hnSrLLZlEB0RMOj97dXH-368" edge="1">
          <mxGeometry width="50" height="50" relative="1" as="geometry">
            <mxPoint x="4145" y="-980" as="sourcePoint" />
            <mxPoint x="4195" y="-1030" as="targetPoint" />
          </mxGeometry>
        </mxCell>
        <mxCell id="hnSrLLZlEB0RMOj97dXH-368" value="12" style="rounded=1;whiteSpace=wrap;html=1;" parent="1" vertex="1">
          <mxGeometry x="4285" y="-1100" width="40" height="40" as="geometry" />
        </mxCell>
        <mxCell id="hnSrLLZlEB0RMOj97dXH-369" value="13" style="rounded=1;whiteSpace=wrap;html=1;" parent="1" vertex="1">
          <mxGeometry x="4335" y="-920" width="40" height="40" as="geometry" />
        </mxCell>
        <mxCell id="hnSrLLZlEB0RMOj97dXH-370" value="" style="endArrow=none;html=1;rounded=0;exitX=0.5;exitY=0;exitDx=0;exitDy=0;entryX=0.25;entryY=1;entryDx=0;entryDy=0;" parent="1" source="hnSrLLZlEB0RMOj97dXH-369" target="hnSrLLZlEB0RMOj97dXH-371" edge="1">
          <mxGeometry width="50" height="50" relative="1" as="geometry">
            <mxPoint x="4355" y="-910" as="sourcePoint" />
            <mxPoint x="4305" y="-940" as="targetPoint" />
          </mxGeometry>
        </mxCell>
        <mxCell id="hnSrLLZlEB0RMOj97dXH-371" value="14" style="rounded=1;whiteSpace=wrap;html=1;" parent="1" vertex="1">
          <mxGeometry x="4365" y="-1030" width="40" height="40" as="geometry" />
        </mxCell>
        <mxCell id="hnSrLLZlEB0RMOj97dXH-372" value="15" style="rounded=1;whiteSpace=wrap;html=1;" parent="1" vertex="1">
          <mxGeometry x="4415" y="-920" width="40" height="40" as="geometry" />
        </mxCell>
        <mxCell id="hnSrLLZlEB0RMOj97dXH-373" value="" style="endArrow=none;html=1;rounded=0;exitX=0.5;exitY=0;exitDx=0;exitDy=0;entryX=0.894;entryY=0.994;entryDx=0;entryDy=0;entryPerimeter=0;" parent="1" source="hnSrLLZlEB0RMOj97dXH-372" target="hnSrLLZlEB0RMOj97dXH-371" edge="1">
          <mxGeometry width="50" height="50" relative="1" as="geometry">
            <mxPoint x="4425" y="-900" as="sourcePoint" />
            <mxPoint x="4395" y="-960" as="targetPoint" />
          </mxGeometry>
        </mxCell>
        <mxCell id="hnSrLLZlEB0RMOj97dXH-374" value="" style="endArrow=none;html=1;rounded=0;exitX=0.65;exitY=-0.03;exitDx=0;exitDy=0;exitPerimeter=0;entryX=1;entryY=0.75;entryDx=0;entryDy=0;" parent="1" source="hnSrLLZlEB0RMOj97dXH-371" target="hnSrLLZlEB0RMOj97dXH-368" edge="1">
          <mxGeometry width="50" height="50" relative="1" as="geometry">
            <mxPoint x="4255" y="-980" as="sourcePoint" />
            <mxPoint x="4305" y="-1030" as="targetPoint" />
          </mxGeometry>
        </mxCell>
        <mxCell id="hnSrLLZlEB0RMOj97dXH-375" value="" style="endArrow=none;html=1;rounded=0;exitX=0.5;exitY=0;exitDx=0;exitDy=0;entryX=0.346;entryY=1.039;entryDx=0;entryDy=0;entryPerimeter=0;" parent="1" source="hnSrLLZlEB0RMOj97dXH-348" target="hnSrLLZlEB0RMOj97dXH-366" edge="1">
          <mxGeometry width="50" height="50" relative="1" as="geometry">
            <mxPoint x="4045" y="-1050" as="sourcePoint" />
            <mxPoint x="4095" y="-1100" as="targetPoint" />
          </mxGeometry>
        </mxCell>
        <mxCell id="hnSrLLZlEB0RMOj97dXH-376" value="" style="endArrow=none;html=1;rounded=0;exitX=0.5;exitY=0;exitDx=0;exitDy=0;entryX=1;entryY=0.75;entryDx=0;entryDy=0;" parent="1" source="hnSrLLZlEB0RMOj97dXH-368" target="hnSrLLZlEB0RMOj97dXH-366" edge="1">
          <mxGeometry width="50" height="50" relative="1" as="geometry">
            <mxPoint x="4225" y="-1060" as="sourcePoint" />
            <mxPoint x="4275" y="-1110" as="targetPoint" />
          </mxGeometry>
        </mxCell>
        <mxCell id="hnSrLLZlEB0RMOj97dXH-377" value="&lt;font style=&quot;font-size: 36px;&quot;&gt;。。。&lt;/font&gt;" style="text;html=1;align=center;verticalAlign=middle;resizable=0;points=[];autosize=1;strokeColor=none;fillColor=none;" parent="1" vertex="1">
          <mxGeometry x="3690" y="-997" width="130" height="60" as="geometry" />
        </mxCell>
      </root>
    </mxGraphModel>
  </diagram>
</mxfile>
